<svg xmlns="http://www.w3.org/2000/svg" viewBox="0 0 64 64" fill="none">
  <!-- Ear shape -->
  <path d="M32 6C18.7 6 8 16.7 8 30c0 8.8 4.7 16.5 11.8 20.7.5.3 1.1.1 1.4-.4.3-.5.1-1.1-.4-1.4C14.3 45.1 10 38 10 30 10 17.8 19.8 8 32 8s22 9.8 22 22c0 7.2-3.5 13.6-8.8 17.6-.5.3-.6 1-.3 1.4.3.5 1 .6 1.4.3C52.2 45.1 56 38.1 56 30 56 16.7 45.3 6 32 6z" fill="#1B365D"/>
  <!-- Inner ear curve -->
  <path d="M32 16c-7.7 0-14 6.3-14 14 0 4.6 2.2 8.7 5.7 11.2.5.3 1.1.2 1.4-.3.3-.5.2-1.1-.3-1.4C21.8 37.2 20 33.8 20 30c0-6.6 5.4-12 12-12s12 5.4 12 12c0 3.8-1.8 7.2-4.8 9.5-.5.3-.6 1-.3 1.4.3.5 1 .6 1.4.3C44 38.7 46 34.6 46 30c0-7.7-6.3-14-14-14z" fill="#1B365D"/>
  <!-- Sound wave dots -->
  <circle cx="32" cy="30" r="4" fill="#E9A825"/>
  <!-- Sound wave arcs -->
  <path d="M38 24c2.5 2.5 4 5.6 4 9s-1.5 6.5-4 9" stroke="#2A9D8F" stroke-width="2.5" stroke-linecap="round" fill="none"/>
  <path d="M43 19c4 4 6.5 9.2 6.5 14.5S47 44.5 43 48.5" stroke="#2A9D8F" stroke-width="2.5" stroke-linecap="round" fill="none" opacity="0.6"/>
</svg>
